# xmcd
#
# Track frame offsets: 
#        150
#        20237
#        34164
#        44734
#        62387
#        76294
#        87363
#        103830
#        112642
#        128016
#        141750
#        151525
#        160337
#        172234
#        188523
#        206638
#        224788
#        242260
#        255147
#        270332
#
# Disc length: 3849 seconds
#
# Revision: 0
# Processed by: cddbd v1.4PL0 Copyright (c) Steve Scherf et al.
# Submitted via: ExactAudioCopy v0.90b4
#
DISCID=080f0714
DTITLE=Various Artist - This is soul CD3
DYEAR=1999
DGENRE=Soul
TTITLE0=The Supremes/Stoned love
TTITLE1=The Contours/This old heart of mine
TTITLE2=The Drifters/Dance with me
TTITLE3=Scherrie Payne/I'm still waiting
TTITLE4=The Marvelettes/Beachwood 4-5789
TTITLE5=Sam&Dave/You don't know what you mean to me
TTITLE6=The Contours/First I look at the purse
TTITLE7=G.C. Cameron/Just my imagination
TTITLE8=Sylvia Moy/My Cherie Amour
TTITLE9=Kim Weston/Dancing in the street
TTITLE10=James Brown/Please, please, please (live)
TTITLE11=Gladys Knight&the Pips/If I should ever fall in love
TTITLE12=Maxine Brown/Oh no not my baby
TTITLE13=James Brown/I got the feelin' (live)
TTITLE14=Martha Reeves/Heatwave
TTITLE15=Scherrie Payne/Ain't no mountain high enough
TTITLE16=Frances Nero/You are the sunshine of my life
TTITLE17=The Drifters/On broadway
TTITLE18=The Velvelettes/Needle in a Haystack
TTITLE19=Hattie Littles/Touch me in the morning
EXTD=
EXTT0=
EXTT1=
EXTT2=
EXTT3=
EXTT4=
EXTT5=
EXTT6=
EXTT7=
EXTT8=
EXTT9=
EXTT10=
EXTT11=
EXTT12=
EXTT13=
EXTT14=
EXTT15=
EXTT16=
EXTT17=
EXTT18=
EXTT19=
PLAYORDER=
